<svg width="25" height="25" viewBox="0 0 25 25" fill="none" xmlns="http://www.w3.org/2000/svg">
<g clip-path="url(#clip0_262_383)">
<path d="M12.2731 17.5303C15.0345 17.5303 17.2731 15.2917 17.2731 12.5303C17.2731 9.76885 15.0345 7.53027 12.2731 7.53027C9.51165 7.53027 7.27307 9.76885 7.27307 12.5303C7.27307 15.2917 9.51165 17.5303 12.2731 17.5303Z" stroke="white" stroke-width="2" stroke-linecap="round" stroke-linejoin="round"/>
<path d="M12.2731 1.53027V3.53027" stroke="white" stroke-width="2" stroke-linecap="round" stroke-linejoin="round"/>
<path d="M12.2731 21.5303V23.5303" stroke="white" stroke-width="2" stroke-linecap="round" stroke-linejoin="round"/>
<path d="M4.49304 4.75024L5.91304 6.17024" stroke="white" stroke-width="2" stroke-linecap="round" stroke-linejoin="round"/>
<path d="M18.6331 18.8903L20.0531 20.3103" stroke="white" stroke-width="2" stroke-linecap="round" stroke-linejoin="round"/>
<path d="M1.27307 12.5303H3.27307" stroke="white" stroke-width="2" stroke-linecap="round" stroke-linejoin="round"/>
<path d="M21.2731 12.5303H23.2731" stroke="white" stroke-width="2" stroke-linecap="round" stroke-linejoin="round"/>
<path d="M4.49304 20.3103L5.91304 18.8903" stroke="white" stroke-width="2" stroke-linecap="round" stroke-linejoin="round"/>
<path d="M18.6331 6.17024L20.0531 4.75024" stroke="white" stroke-width="2" stroke-linecap="round" stroke-linejoin="round"/>
</g>
<defs>
<clipPath id="clip0_262_383">
<rect width="24" height="24" fill="white" transform="translate(0.273071 0.530273)"/>
</clipPath>
</defs>
</svg>
