<svg width="25" height="25" viewBox="0 0 25 25" fill="none" xmlns="http://www.w3.org/2000/svg">
<path d="M3.88562 6.78491H5.88562H21.8856" stroke="white" stroke-width="2" stroke-linecap="round" stroke-linejoin="round"/>
<path d="M19.8856 6.78491V20.7849C19.8856 21.3153 19.6749 21.8241 19.2998 22.1991C18.9248 22.5742 18.4161 22.7849 17.8856 22.7849H7.88562C7.35519 22.7849 6.84648 22.5742 6.47141 22.1991C6.09633 21.8241 5.88562 21.3153 5.88562 20.7849V6.78491M8.88562 6.78491V4.78491C8.88562 4.25448 9.09633 3.74577 9.47141 3.3707C9.84648 2.99563 10.3552 2.78491 10.8856 2.78491H14.8856C15.4161 2.78491 15.9248 2.99563 16.2998 3.3707C16.6749 3.74577 16.8856 4.25448 16.8856 4.78491V6.78491" stroke="white" stroke-width="2" stroke-linecap="round" stroke-linejoin="round"/>
<path d="M10.8856 11.7849V17.7849" stroke="white" stroke-width="2" stroke-linecap="round" stroke-linejoin="round"/>
<path d="M14.8856 11.7849V17.7849" stroke="white" stroke-width="2" stroke-linecap="round" stroke-linejoin="round"/>
</svg>
